PathFileType  4	(X/Y/Z) C:\Users\antoi\Documents\MyRepositories\mobilecap\ResultsAnalysis
DataRate	CameraRate	NumFrames	NumMarkers	Units	OrigDataRate	OrigDataStartFrame	OrigNumFrames
100.0	100.0	6	51	mm	100.0	203	1623
Frame#	Time	r_knee			r_shank_antsup			r_ankle			r_calc			r_5meta			r_toe			L_knee			L_shank_antsup			L_ankle			L_calc			L_5meta			L_toe			r_sh2			r_sh3			r_sh4			L_sh2			L_sh3			r_thigh1			r_thigh2			r_thigh3			r_thigh4			r_thigh5			L_thigh1			L_thigh2			L_thigh3			L_thigh4			r.ASIS			r.PSIS			L.ASIS			L.PSIS			C7			R_Shoulder			L_Shoulder			R_Sternum			L_Sternum			R_humerus			R_elbow_med			R_elbow_lat			R_forearm			R_wrist_radius			R_wrist_ulna			L_humerus			L_elbow_med			L_elbow_lat			L_forearm			L_wrist_radius			L_wrist_ulna			R_HJC			L_HJC			R_HJC_reg			L_HJC_reg			
		X1	Y1	Z1	X2	Y2	Z2	X3	Y3	Z3	X4	Y4	Z4	X5	Y5	Z5	X6	Y6	Z6	X7	Y7	Z7	X8	Y8	Z8	X9	Y9	Z9	X10	Y10	Z10	X11	Y11	Z11	X12	Y12	Z12	X13	Y13	Z13	X14	Y14	Z14	X15	Y15	Z15	X16	Y16	Z16	X17	Y17	Z17	X18	Y18	Z18	X19	Y19	Z19	X20	Y20	Z20	X21	Y21	Z21	X22	Y22	Z22	X23	Y23	Z23	X24	Y24	Z24	X25	Y25	Z25	X26	Y26	Z26	X27	Y27	Z27	X28	Y28	Z28	X29	Y29	Z29	X30	Y30	Z30	X31	Y31	Z31	X32	Y32	Z32	X33	Y33	Z33	X34	Y34	Z34	X35	Y35	Z35	X36	Y36	Z36	X37	Y37	Z37	X38	Y38	Z38	X39	Y39	Z39	X40	Y40	Z40	X41	Y41	Z41	X42	Y42	Z42	X43	Y43	Z43	X44	Y44	Z44	X45	Y45	Z45	X46	Y46	Z46	X47	Y47	Z47	X48	Y48	Z48	X49	Y49	Z49	X50	Y50	Z50	X51	Y51	Z51	

203	2.02000000	-143.50819	504.57828	-395.25128	-132.20336	429.23479	-363.50726	-291.91273	104.13833	-380.22641	-349.81922	53.58801	-427.47879	-161.37657	37.53270	-317.44544	-120.01720	63.25534	-372.24348	-125.73874	503.31065	-888.50859	-120.99658	391.85092	-913.90366	-274.25115	100.93221	-893.41290	-343.53774	53.89510	-856.62558	-127.61552	32.68761	-940.89825	-100.59820	60.03704	-877.43931	-174.34518	324.24552	-353.94584	-201.74352	456.17751	-368.57863	-251.58486	351.01197	-364.07098	-201.85967	431.73371	-908.27439	-242.93817	318.61258	-912.65589	-299.79703	776.05471	-423.37249	-215.06733	708.25970	-410.58251	-239.68398	648.12178	-381.50614	-371.40458	687.38528	-430.98389	-281.24029	618.36708	-400.57290	-283.31383	777.87004	-852.99254	-180.91498	685.58599	-875.47570	-362.87778	689.56655	-850.68474	-256.17595	606.12757	-881.49260	-304.06102	852.46936	-508.53912	-455.74834	957.99564	-598.27339	-291.03059	844.51588	-764.79973	-452.31781	954.03834	-701.26400	-191.09392	1378.79649	-641.93934	-153.57253	1317.03661	-462.66418	-103.10944	1324.39878	-794.27542	-72.66741	1265.68154	-596.59118	-65.93257	1262.24772	-648.40257	-297.72269	1103.58086	-358.87677	-364.49164	1016.55821	-422.59385	-355.53725	1034.68490	-335.18344	-258.68400	903.77759	-314.32537	-189.33057	818.17027	-319.79781	-227.29658	801.19205	-303.38755	-216.06098	1114.31890	-917.34175	-306.52112	1038.81684	-873.20710	-275.36331	1050.27697	-944.69369	-192.57305	892.71121	-958.81502	-133.40722	817.40159	-947.57066	-166.32985	797.10388	-959.76702	-409.52371	811.01631	-519.00564	-395.14298	802.49303	-748.76472	-396.63497	812.10267	-546.43639	-390.99856	805.60054	-715.65064	
204	2.03000000	-145.91552	506.02294	-395.34465	-134.58827	430.52934	-363.81458	-292.01880	104.06152	-380.18190	-349.82855	53.58125	-427.41896	-161.38020	37.48147	-317.39995	-120.00752	63.20330	-372.20730	-127.51087	504.43940	-888.36375	-122.49492	392.63122	-913.68833	-274.32866	101.08000	-893.83690	-343.59270	53.83727	-856.71250	-127.62119	32.66451	-940.91034	-100.61415	60.04693	-877.44938	-176.02975	325.13349	-354.07018	-204.28283	456.98877	-368.72487	-253.26022	351.60817	-364.19061	-203.61513	431.99632	-908.21619	-244.08965	318.76711	-912.60274	-298.24659	780.33634	-423.47093	-214.30841	712.14993	-409.82223	-240.11364	651.13893	-381.87288	-371.04994	692.74266	-431.49914	-282.11789	622.13196	-401.19134	-280.86159	781.92394	-853.63899	-180.20052	687.79469	-876.10414	-361.95414	694.81335	-850.57034	-256.55068	609.75816	-881.82740	-302.35872	858.61581	-509.28015	-453.68157	964.51890	-598.84520	-288.41051	852.44440	-765.38497	-450.08286	960.67852	-701.81656	-193.02365	1387.61281	-642.26819	-155.07356	1326.38340	-463.07345	-104.65704	1334.14599	-794.64018	-73.66790	1275.70573	-596.95970	-66.82433	1272.24956	-648.64449	-297.99293	1111.84585	-359.69860	-364.13629	1024.35365	-423.73535	-355.55020	1042.55216	-336.30456	-259.77017	911.06879	-314.59258	-191.07233	824.66833	-319.60653	-229.30187	808.02249	-303.53249	-216.56007	1123.18511	-917.35644	-306.75119	1047.80130	-872.96086	-275.64914	1058.81410	-944.43097	-194.06337	900.57627	-958.55103	-135.70609	824.59843	-947.43065	-168.87638	804.64236	-959.62035	-407.55882	817.00531	-520.27819	-392.38194	809.88512	-750.03313	-394.61558	819.21586	-547.36057	-388.70554	812.90822	-716.47050	
205	2.04000000	-148.41434	507.48078	-395.47565	-137.09136	431.80680	-364.08380	-292.07773	104.02802	-380.13077	-349.82985	53.57023	-427.35661	-161.38867	37.44495	-317.37208	-120.01257	63.16414	-372.19797	-129.29802	505.53296	-888.08836	-124.03343	393.43263	-913.44211	-274.42072	101.14142	-894.14471	-343.60286	53.77769	-856.77448	-127.62062	32.62800	-940.91714	-100.62746	60.04525	-877.43912	-177.77652	326.13009	-354.10613	-206.79013	457.94381	-368.86629	-254.95819	352.30366	-364.11267	-205.18097	432.55029	-908.48963	-245.30166	318.80774	-912.52443	-296.67966	784.54178	-423.85486	-214.03252	715.23013	-409.20560	-240.51605	654.24800	-382.19193	-370.72920	697.92205	-432.15100	-282.98625	625.86871	-401.87029	-278.41328	785.82824	-854.19842	-178.76069	690.15153	-875.79604	-361.00235	700.12140	-850.82350	-256.92772	613.18572	-881.91580	-300.78907	864.45413	-510.23485	-451.56609	970.95999	-599.31811	-285.94755	859.07736	-765.84464	-447.83691	967.16796	-702.37683	-195.08747	1396.34901	-642.64268	-156.69013	1335.73870	-463.39947	-106.27613	1343.78358	-795.02529	-74.71718	1285.71050	-597.34608	-67.82210	1282.25360	-648.98486	-298.21961	1120.01398	-360.44094	-363.71314	1032.30566	-424.91813	-355.53708	1050.44663	-337.35802	-260.85930	918.28290	-314.73088	-192.80056	831.13637	-319.32573	-231.34097	814.75204	-303.75048	-217.14185	1131.99816	-917.35806	-306.84220	1056.58835	-872.72954	-275.95119	1067.17777	-944.07779	-195.57005	908.34807	-958.27245	-138.02166	831.52776	-947.19867	-171.40328	811.95846	-959.29655	-405.87204	822.98203	-521.28137	-390.14521	816.61450	-751.02507	-392.76571	825.86827	-548.38210	-386.65794	819.65715	-717.18057	
206	2.05000000	-150.89164	508.93428	-395.64649	-139.57952	432.99875	-364.44031	-292.19478	104.00739	-380.04162	-349.82464	53.56940	-427.30007	-161.37455	37.42212	-317.32602	-120.02347	63.13574	-372.20982	-131.10379	506.63317	-887.74715	-125.56739	394.29571	-913.32555	-274.49072	101.06310	-894.24758	-343.57640	53.75504	-856.83207	-127.61910	32.59081	-940.93718	-100.63123	60.01788	-877.45202	-179.51495	327.23934	-354.05893	-209.42251	458.75632	-369.30193	-256.79348	352.80672	-364.15109	-206.63673	433.33764	-908.73088	-246.49184	318.90158	-912.52636	-294.91264	788.38424	-424.24876	-214.25029	716.77405	-409.25320	-240.91195	657.36130	-382.52077	-370.32797	703.01653	-433.09460	-283.85112	629.60600	-402.43315	-276.00282	789.67992	-854.62007	-176.78263	692.64917	-874.53191	-359.89073	705.40925	-851.38384	-257.24132	616.43230	-881.59689	-298.57759	870.81908	-510.74035	-449.37929	977.36144	-599.76867	-283.65088	864.41916	-766.16634	-445.52810	973.54808	-703.04782	-197.22775	1405.05723	-643.20526	-158.39585	1345.10690	-463.68361	-108.03902	1353.30550	-795.52834	-75.81081	1295.65252	-597.74160	-68.88695	1292.12544	-649.50498	-298.47376	1128.05871	-361.16243	-363.25624	1040.48702	-425.86750	-355.50711	1058.19166	-338.36868	-261.91990	925.37096	-314.89011	-194.51772	837.57581	-318.92753	-233.37736	821.49522	-303.85582	-217.72062	1140.59256	-917.39360	-306.86288	1065.04180	-872.52445	-276.17788	1075.40018	-943.74626	-197.08038	916.00073	-958.09618	-140.33365	838.30430	-946.93069	-173.89249	819.15069	-959.14835	-403.83304	829.54745	-521.49856	-388.15712	822.47725	-751.22244	-390.63624	831.79495	-548.95421	-384.34581	825.56664	-717.64527	
207	2.06000000	-153.37408	510.36579	-395.87289	-142.02573	434.20558	-364.81800	-292.36079	103.98277	-379.84860	-349.81978	53.59956	-427.25028	-161.33257	37.40470	-317.25270	-120.01495	63.11300	-372.19779	-132.92884	507.80099	-887.49569	-127.13821	395.12009	-913.09898	-274.52512	100.95146	-894.31671	-343.53992	53.76204	-856.93147	-127.59043	32.52306	-940.95112	-100.62997	59.96732	-877.51897	-181.34030	328.35933	-354.01447	-212.16115	459.37465	-369.95188	-258.79333	353.08055	-364.58390	-208.23221	434.01671	-908.65660	-247.63350	319.20025	-912.68395	-292.96024	792.07100	-424.52583	-214.29319	718.35466	-409.37784	-241.32566	660.32428	-382.90365	-369.81291	708.16001	-434.01315	-284.73943	633.27474	-402.92338	-273.59461	793.47561	-854.97627	-175.22631	694.98637	-873.69616	-358.50915	710.09436	-850.60544	-257.47838	619.71688	-881.30949	-295.56292	877.90141	-510.61614	-447.14145	983.69054	-600.27227	-281.19053	870.12809	-766.49350	-443.13924	979.86796	-703.84079	-199.41562	1413.69960	-643.81919	-160.14862	1354.32684	-464.13545	-109.97249	1362.75892	-796.08810	-76.99612	1305.55037	-598.11801	-69.97373	1301.91102	-649.95566	-298.80455	1136.06966	-361.83671	-362.77115	1048.54941	-426.52950	-355.47129	1065.59234	-339.36474	-262.98448	932.31923	-315.14468	-196.22826	843.90457	-318.58854	-235.36436	828.26536	-303.88240	-218.25973	1148.96636	-917.54553	-306.90570	1073.28991	-872.37178	-276.34383	1083.44592	-943.49118	-198.52340	923.43867	-957.97074	-142.58168	844.97141	-946.71975	-176.41187	826.48954	-959.78923	-401.05173	836.49638	-521.36494	-385.63287	828.27258	-751.06823	-387.93582	837.55726	-549.01355	-381.40559	831.32044	-717.99635	
208	2.07000000	-155.95866	511.74051	-396.12156	-144.47642	435.52539	-365.10257	-292.53623	103.95255	-379.64528	-349.83806	53.64267	-427.19892	-161.29271	37.39030	-317.16647	-119.99236	63.10877	-372.13583	-134.78649	509.02482	-887.31431	-128.75761	395.90488	-912.67889	-274.55485	100.87671	-894.41673	-343.53727	53.80168	-857.07332	-127.52738	32.40161	-940.94204	-100.62831	59.91167	-877.61156	-183.25135	329.36946	-354.01190	-214.84059	460.00906	-370.49109	-260.81698	353.41903	-365.09160	-210.05092	434.48492	-908.41716	-248.78996	319.57642	-912.88160	-291.05636	795.98921	-424.69819	-213.80577	720.94659	-409.40620	-241.73659	663.16395	-383.26103	-369.21472	713.30480	-434.71671	-285.59726	636.89138	-403.38543	-271.12378	797.12779	-855.26283	-174.35297	697.07575	-873.87909	-357.01992	714.41108	-848.90453	-257.72052	623.12293	-881.31274	-292.61076	884.82751	-510.58967	-444.85362	989.88460	-600.80719	-278.47695	876.68771	-766.90458	-440.73553	986.09702	-704.61473	-201.66330	1422.17547	-644.32506	-161.92431	1363.33295	-464.75702	-111.99837	1372.16153	-796.57560	-78.28366	1315.39031	-598.50876	-71.07680	1311.79011	-650.24444	-299.11463	1144.03692	-362.40527	-362.14677	1056.17963	-427.32276	-355.42452	1072.97118	-340.38232	-264.04526	939.16695	-315.48652	-197.88939	850.13811	-318.40759	-237.30859	834.94547	-304.06834	-218.81730	1157.21139	-917.73688	-306.85813	1081.41809	-872.21207	-276.49283	1091.24168	-943.22763	-199.88384	930.60090	-957.76666	-144.78979	851.41132	-946.53869	-178.92092	833.84813	-961.00909	-398.13839	843.09394	-521.60854	-382.67247	834.47067	-751.29561	-385.07971	843.64145	-549.15329	-378.36502	837.46539	-718.41698	
